<svg width="30" height="29" viewBox="0 0 30 29" fill="none" xmlns="http://www.w3.org/2000/svg">
<path opacity="0.4" d="M16.6381 2.41675H21.4714V9.66675H16.6381V2.41675Z" fill="#086D7A"/>
<path opacity="0.4" d="M16.638 9.66675H21.4713L26.0658 18.8557C26.7307 20.1855 25.7637 21.7501 24.2769 21.7501H13.8324C12.3456 21.7501 11.3786 20.1855 12.0435 18.8557L16.638 9.66675Z" fill="#086D7A"/>
<path fill-rule="evenodd" clip-rule="evenodd" d="M15.4297 2.41675C15.4297 1.91624 15.8354 1.5105 16.3359 1.5105H21.7734C22.2739 1.5105 22.6797 1.91624 22.6797 2.41675C22.6797 2.91726 22.2739 3.323 21.7734 3.323H16.3359C15.8354 3.323 15.4297 2.91726 15.4297 2.41675Z" fill="#086D7A"/>
<path fill-rule="evenodd" clip-rule="evenodd" d="M8.17969 1.5105C8.6802 1.5105 9.08594 1.91624 9.08594 2.41675L9.08594 26.5834C9.08594 27.0839 8.68019 27.4897 8.17969 27.4897C7.67918 27.4897 7.27344 27.0839 7.27344 26.5834L7.27344 2.41675C7.27344 1.91624 7.67918 1.5105 8.17969 1.5105Z" fill="#086D7A"/>
<path fill-rule="evenodd" clip-rule="evenodd" d="M4.85681 9.66675C4.85681 9.16624 5.26255 8.7605 5.76306 8.7605L25.0964 8.7605C25.5969 8.7605 26.0026 9.16624 26.0026 9.66675C26.0026 10.1673 25.5969 10.573 25.0964 10.573L5.76306 10.573C5.26255 10.573 4.85681 10.1673 4.85681 9.66675Z" fill="#086D7A"/>
<path fill-rule="evenodd" clip-rule="evenodd" d="M4.85681 26.5833C4.85681 26.0827 5.26255 25.677 5.76306 25.677L25.0964 25.677C25.5969 25.677 26.0026 26.0827 26.0026 26.5833C26.0026 27.0838 25.5969 27.4895 25.0964 27.4895L5.76306 27.4895C5.26255 27.4895 4.85681 27.0838 4.85681 26.5833Z" fill="#086D7A"/>
</svg>
