<svg width="64" height="64" viewBox="0 0 64 64" fill="none" xmlns="http://www.w3.org/2000/svg">
<g opacity="0.5">
<path fill-rule="evenodd" clip-rule="evenodd" d="M49.3333 30.6667V16H53.3333V30.6667C53.3333 31.7712 52.4378 32.6667 51.3333 32.6667C50.2287 32.6667 49.3333 31.7712 49.3333 30.6667Z" fill="white"/>
<path d="M42.6666 26.6667V18.6667H21.3333V26.6667C21.3333 32.5578 26.1089 37.3334 31.9999 37.3334C37.891 37.3334 42.6666 32.5578 42.6666 26.6667Z" fill="white"/>
<path d="M10.7414 14.7816L28.7509 6.7774C30.8194 5.85805 33.1805 5.85805 35.2491 6.7774L53.2585 14.7816C54.3143 15.2508 54.3143 16.7492 53.2585 17.2184L35.2491 25.2226C33.1805 26.142 30.8194 26.142 28.7509 25.2226L10.7414 17.2184C9.68565 16.7492 9.68565 15.2508 10.7414 14.7816Z" fill="white"/>
<path d="M38.1321 41.0654L33.896 45.3489C32.8523 46.4043 31.1476 46.4043 30.1039 45.3489L25.8678 41.0654C25.2134 40.4037 24.2581 40.1217 23.3653 40.3842C15.8849 42.584 10.6666 47.5542 10.6666 53.3332C10.6666 56.2787 13.0544 58.6666 16 58.6666H48C50.9455 58.6666 53.3333 56.2787 53.3333 53.3332C53.3333 47.5542 48.115 42.584 40.6346 40.3842C39.7418 40.1217 38.7865 40.4037 38.1321 41.0654Z" fill="white"/>
</g>
</svg>
