<svg width="45" height="53" viewBox="0 0 45 53" fill="none" xmlns="http://www.w3.org/2000/svg">
<path fill-rule="evenodd" clip-rule="evenodd" d="M39.8333 24.6667V10H43.8333V24.6667C43.8333 25.7712 42.9379 26.6667 41.8333 26.6667C40.7287 26.6667 39.8333 25.7712 39.8333 24.6667Z" fill="white"/>
<path d="M33.1666 20.6667V12.6667H11.8333V20.6667C11.8333 26.5578 16.6089 31.3334 22.5 31.3334C28.391 31.3334 33.1666 26.5578 33.1666 20.6667Z" fill="white"/>
<path d="M1.2414 8.7816L19.2509 0.777398C21.3194 -0.141945 23.6805 -0.141945 25.7491 0.777398L43.7585 8.7816C44.8143 9.25082 44.8143 10.7492 43.7585 11.2184L25.7491 19.2226C23.6805 20.142 21.3194 20.142 19.2509 19.2226L1.2414 11.2184C0.185647 10.7492 0.185647 9.25082 1.2414 8.7816Z" fill="white"/>
<path d="M28.6321 35.0654L24.396 39.3489C23.3523 40.4043 21.6476 40.4043 20.6039 39.3489L16.3678 35.0654C15.7134 34.4037 14.7581 34.1217 13.8653 34.3842C6.38492 36.584 1.16663 41.5542 1.16663 47.3332C1.16663 50.2787 3.55444 52.6666 6.49996 52.6666H38.5C41.4455 52.6666 43.8333 50.2787 43.8333 47.3332C43.8333 41.5542 38.615 36.584 31.1346 34.3842C30.2418 34.1217 29.2865 34.4037 28.6321 35.0654Z" fill="white"/>
</svg>
