<svg width="20" height="20" viewBox="0 0 20 20" fill="none" xmlns="http://www.w3.org/2000/svg">
<g clip-path="url(#clip0_1757_1099)">
<path d="M0.472188 6.95656C0.165859 7.91625 -3.90556e-05 8.93863 6.89667e-09 9.99992C-3.90556e-05 11.0613 0.165898 12.0837 0.472227 13.0434L10 13.4782L19.5278 13.0435C19.8341 12.0838 20 11.0613 20 10C20 8.93867 19.8341 7.91625 19.5278 6.95652L10 6.52176L0.472188 6.95656Z" fill="white"/>
<path d="M19.5278 6.95656L10.0001 6.5218L0.472246 6.95656C0.381465 7.24109 0.303301 7.53121 0.237793 7.82613H19.7622C19.6967 7.53117 19.6186 7.24102 19.5278 6.95656Z" fill="#D80027"/>
<path d="M0.237793 12.1739C0.303223 12.4688 0.381387 12.7589 0.472168 13.0434L0.473106 13.0434L9.9999 13.4782L19.5277 13.0434C19.6185 12.7589 19.6966 12.4688 19.7621 12.1739H0.237793Z" fill="#D80027"/>
<path d="M9.9999 20C14.4615 20 18.24 17.078 19.5277 13.0434H0.472168C1.75986 17.0779 5.53846 20 9.9999 20Z" fill="#6DA544"/>
<path d="M9.99994 3.81474e-05C5.53846 7.72099e-05 1.75994 2.92207 0.472168 6.95656L19.5277 6.9566C18.2401 2.92203 14.4615 -9.15137e-07 9.99994 3.81474e-05Z" fill="#338AF3"/>
<path d="M4.56972 4.13051C4.56972 3.19391 5.22796 2.41149 6.10698 2.21954C5.9719 2.19001 5.83171 2.17403 5.68772 2.17403C4.60718 2.17403 3.7312 3.04997 3.7312 4.13055C3.7312 5.21114 4.6071 6.08708 5.68772 6.08708C5.83171 6.08708 5.97186 6.07106 6.10698 6.04157C5.228 5.84954 4.56972 5.06712 4.56972 4.13051Z" fill="white"/>
<path d="M7.26349 5.01981L7.39591 5.42742H7.8245L7.47778 5.67938L7.61021 6.08699L7.26349 5.83508L6.91669 6.08699L7.04915 5.67938L6.70239 5.42742H7.13099L7.26349 5.01981Z" fill="white"/>
<path d="M8.63133 5.01981L8.76379 5.42742H9.19238L8.84562 5.67938L8.97809 6.08699L8.63133 5.83508L8.28457 6.08699L8.41703 5.67938L8.07031 5.42742H8.49887L8.63133 5.01981Z" fill="white"/>
<path d="M9.99933 5.01981L10.1317 5.42742H10.5604L10.2136 5.67938L10.346 6.08699L9.99933 5.83508L9.65253 6.08699L9.78503 5.67938L9.43823 5.42742H9.86686L9.99933 5.01981Z" fill="white"/>
<path d="M11.3675 5.01981L11.5 5.42742H11.9285L11.5818 5.67938L11.7142 6.08699L11.3675 5.83508L11.0207 6.08699L11.1532 5.67938L10.8064 5.42742H11.235L11.3675 5.01981Z" fill="white"/>
<path d="M12.7353 5.01981L12.8678 5.42742H13.2964L12.9497 5.67938L13.0821 6.08699L12.7353 5.83508L12.3886 6.08699L12.521 5.67938L12.1743 5.42742H12.6029L12.7353 5.01981Z" fill="white"/>
<path d="M8.63133 3.59687L8.76379 4.00445H9.19238L8.84562 4.25644L8.97809 4.66402L8.63133 4.41211L8.28457 4.66402L8.41703 4.25644L8.07031 4.00445H8.49887L8.63133 3.59687Z" fill="white"/>
<path d="M9.99933 3.59687L10.1317 4.00445H10.5604L10.2136 4.25644L10.346 4.66402L9.99933 4.41211L9.65253 4.66402L9.78503 4.25644L9.43823 4.00445H9.86686L9.99933 3.59687Z" fill="white"/>
<path d="M11.3675 3.59687L11.5 4.00445H11.9285L11.5818 4.25644L11.7142 4.66402L11.3675 4.41211L11.0207 4.66402L11.1532 4.25644L10.8064 4.00445H11.235L11.3675 3.59687Z" fill="white"/>
<path d="M12.7353 3.59687L12.8678 4.00445H13.2964L12.9497 4.25644L13.0821 4.66402L12.7353 4.41211L12.3886 4.66402L12.521 4.25644L12.1743 4.00445H12.6029L12.7353 3.59687Z" fill="white"/>
<path d="M9.99933 2.17391L10.1317 2.58156H10.5604L10.2136 2.83348L10.346 3.24113L9.99933 2.98922L9.65253 3.24113L9.78503 2.83348L9.43823 2.58156H9.86686L9.99933 2.17391Z" fill="white"/>
<path d="M11.3675 2.17391L11.5 2.58156H11.9285L11.5818 2.83348L11.7142 3.24113L11.3675 2.98922L11.0207 3.24113L11.1532 2.83348L10.8064 2.58156H11.235L11.3675 2.17391Z" fill="white"/>
<path d="M12.7353 2.17391L12.8678 2.58156H13.2964L12.9497 2.83348L13.0821 3.24113L12.7353 2.98922L12.3886 3.24113L12.521 2.83348L12.1743 2.58156H12.6029L12.7353 2.17391Z" fill="white"/>
<g clip-path="url(#clip1_1757_1099)">
<rect x="11.6797" y="0.703125" width="0.78125" height="0.78125" rx="0.390625" fill="white"/>
<mask id="mask0_1757_1099" style="mask-type:alpha" maskUnits="userSpaceOnUse" x="11" y="0" width="20" height="20">
<rect x="11.6797" y="0.703125" width="19" height="19" fill="#D9D9D9"/>
</mask>
<g mask="url(#mask0_1757_1099)">
<path d="M12.2347 0.990953L12.0086 1.2171L11.9058 1.11431" stroke="#7E5FA6" stroke-width="1.6666" stroke-linecap="round" stroke-linejoin="round"/>
</g>
</g>
<rect x="11.875" y="0.898438" width="0.390625" height="0.390625" rx="0.195312" stroke="#7E5FA6" stroke-width="0.390625"/>
</g>
<defs>
<clipPath id="clip0_1757_1099">
<rect width="20" height="20" fill="white"/>
</clipPath>
<clipPath id="clip1_1757_1099">
<rect x="11.6797" y="0.703125" width="0.78125" height="0.78125" rx="0.390625" fill="white"/>
</clipPath>
</defs>
</svg>
